<svg width="272" height="752" viewBox="0 0 272 752" fill="none" xmlns="http://www.w3.org/2000/svg">
<circle cx="16" cy="16" r="16" fill="rgba(85, 78, 64, 1)"/>
<circle cx="64" cy="16" r="16" fill="rgba(194, 173, 149, 1)"/>
<circle cx="112" cy="16" r="16" fill="rgba(244, 244, 244, 1)"/>
<circle cx="160" cy="16" r="16" fill="rgba(187, 144, 97, 1)"/>
<circle cx="208" cy="16" r="16" fill="rgba(17, 68, 94, 1)"/>
<circle cx="256" cy="16" r="16" fill="rgba(232, 226, 217, 1)"/>
<circle cx="16" cy="64" r="16" fill="rgba(238, 212, 205, 1)"/>
<circle cx="64" cy="64" r="16" fill="rgba(242, 242, 242, 1)"/>
<circle cx="112" cy="64" r="16" fill="rgba(26, 26, 26, 1)"/>
<circle cx="160" cy="64" r="16" fill="rgba(86, 96, 73, 1)"/>
<circle cx="208" cy="64" r="16" fill="rgba(255, 187, 84, 1)"/>
<circle cx="256" cy="64" r="16" fill="rgba(56, 56, 54, 1)"/>
<circle cx="16" cy="112" r="16" fill="rgba(190, 179, 167, 1)"/>
<circle cx="64" cy="112" r="16" fill="rgba(200, 63, 62, 1)"/>
<circle cx="112" cy="112" r="16" fill="rgba(227, 41, 47, 1)"/>
<circle cx="160" cy="112" r="16" fill="rgba(254, 100, 12, 1)"/>
<circle cx="208" cy="112" r="16" fill="rgba(254, 103, 72, 1)"/>
<circle cx="256" cy="112" r="16" fill="rgba(251, 116, 79, 1)"/>
<circle cx="16" cy="160" r="16" fill="rgba(228, 125, 94, 1)"/>
<circle cx="64" cy="160" r="16" fill="rgba(255, 131, 64, 1)"/>
<circle cx="112" cy="160" r="16" fill="rgba(253, 136, 80, 1)"/>
<circle cx="160" cy="160" r="16" fill="rgba(254, 148, 0, 1)"/>
<circle cx="208" cy="160" r="16" fill="rgba(245, 243, 186, 1)"/>
<circle cx="256" cy="160" r="16" fill="rgba(255, 234, 125, 1)"/>
<circle cx="16" cy="208" r="16" fill="rgba(231, 203, 15, 1)"/>
<circle cx="64" cy="208" r="16" fill="rgba(254, 208, 90, 1)"/>
<circle cx="112" cy="208" r="16" fill="rgba(255, 222, 68, 1)"/>
<circle cx="160" cy="208" r="16" fill="rgba(246, 236, 0, 1)"/>
<circle cx="208" cy="208" r="16" fill="rgba(225, 242, 33, 1)"/>
<circle cx="256" cy="208" r="16" fill="rgba(139, 225, 42, 1)"/>
<circle cx="16" cy="256" r="16" fill="rgba(131, 233, 140, 1)"/>
<circle cx="64" cy="256" r="16" fill="rgba(172, 236, 156, 1)"/>
<circle cx="112" cy="256" r="16" fill="rgba(211, 242, 188, 1)"/>
<circle cx="160" cy="256" r="16" fill="rgba(211, 242, 219, 1)"/>
<circle cx="208" cy="256" r="16" fill="rgba(158, 213, 205, 1)"/>
<circle cx="256" cy="256" r="16" fill="rgba(104, 196, 220, 1)"/>
<circle cx="16" cy="304" r="16" fill="rgba(24, 132, 184, 1)"/>
<circle cx="64" cy="304" r="16" fill="rgba(27, 181, 250, 1)"/>
<circle cx="112" cy="304" r="16" fill="rgba(99, 173, 236, 1)"/>
<circle cx="160" cy="304" r="16" fill="rgba(148, 197, 231, 1)"/>
<circle cx="208" cy="304" r="16" fill="rgba(183, 163, 223, 1)"/>
<circle cx="256" cy="304" r="16" fill="rgba(178, 185, 166, 1)"/>
<circle cx="16" cy="352" r="16" fill="rgba(134, 152, 160, 1)"/>
<circle cx="64" cy="352" r="16" fill="rgba(114, 155, 156, 1)"/>
<circle cx="112" cy="352" r="16" fill="rgba(100, 150, 151, 1)"/>
<circle cx="160" cy="352" r="16" fill="rgba(107, 137, 129, 1)"/>
<circle cx="208" cy="352" r="16" fill="rgba(3, 126, 156, 1)"/>
<circle cx="256" cy="352" r="16" fill="rgba(71, 125, 157, 1)"/>
<circle cx="16" cy="400" r="16" fill="rgba(98, 109, 132, 1)"/>
<circle cx="64" cy="400" r="16" fill="rgba(50, 115, 146, 1)"/>
<circle cx="112" cy="400" r="16" fill="rgba(32, 102, 157, 1)"/>
<circle cx="160" cy="400" r="16" fill="rgba(91, 113, 152, 1)"/>
<circle cx="208" cy="400" r="16" fill="rgba(85, 107, 148, 1)"/>
<circle cx="256" cy="400" r="16" fill="rgba(90, 131, 167, 1)"/>
<circle cx="16" cy="448" r="16" fill="rgba(66, 77, 117, 1)"/>
<circle cx="64" cy="448" r="16" fill="rgba(114, 135, 198, 1)"/>
<circle cx="112" cy="448" r="16" fill="rgba(88, 118, 190, 1)"/>
<circle cx="160" cy="448" r="16" fill="rgba(88, 99, 164, 1)"/>
<circle cx="208" cy="448" r="16" fill="rgba(151, 124, 247, 1)"/>
<circle cx="256" cy="448" r="16" fill="rgba(113, 85, 189, 1)"/>
<circle cx="16" cy="496" r="16" fill="rgba(134, 133, 163, 1)"/>
<circle cx="64" cy="496" r="16" fill="rgba(178, 154, 166, 1)"/>
<circle cx="112" cy="496" r="16" fill="rgba(253, 193, 168, 1)"/>
<circle cx="160" cy="496" r="16" fill="rgba(243, 175, 170, 1)"/>
<circle cx="208" cy="496" r="16" fill="rgba(243, 171, 164, 1)"/>
<circle cx="256" cy="496" r="16" fill="rgba(254, 176, 139, 1)"/>
<circle cx="16" cy="544" r="16" fill="rgba(254, 89, 99, 1)"/>
<circle cx="64" cy="544" r="16" fill="rgba(254, 77, 81, 1)"/>
<circle cx="112" cy="544" r="16" fill="rgba(239, 80, 71, 1)"/>
<circle cx="160" cy="544" r="16" fill="rgba(253, 59, 57, 1)"/>
<circle cx="208" cy="544" r="16" fill="rgba(243, 74, 126, 1)"/>
<circle cx="256" cy="544" r="16" fill="rgba(252, 31, 88, 1)"/>
<circle cx="16" cy="592" r="16" fill="rgba(223, 40, 93, 1)"/>
<circle cx="64" cy="592" r="16" fill="rgba(147, 65, 75, 1)"/>
<circle cx="112" cy="592" r="16" fill="rgba(184, 40, 68, 1)"/>
<circle cx="160" cy="592" r="16" fill="rgba(199, 69, 67, 1)"/>
<circle cx="208" cy="592" r="16" fill="rgba(209, 130, 107, 1)"/>
<circle cx="256" cy="592" r="16" fill="rgba(181, 142, 97, 1)"/>
<circle cx="16" cy="640" r="16" fill="rgba(174, 133, 99, 1)"/>
<circle cx="64" cy="640" r="16" fill="rgba(174, 153, 128, 1)"/>
<circle cx="112" cy="640" r="16" fill="rgba(213, 181, 147, 1)"/>
<circle cx="160" cy="640" r="16" fill="rgba(253, 227, 182, 1)"/>
<circle cx="208" cy="640" r="16" fill="rgba(221, 208, 186, 1)"/>
<circle cx="256" cy="640" r="16" fill="rgba(173, 156, 141, 1)"/>
<circle cx="16" cy="688" r="16" fill="rgba(154, 142, 138, 1)"/>
<circle cx="64" cy="688" r="16" fill="rgba(129, 110, 96, 1)"/>
<circle cx="112" cy="688" r="16" fill="rgba(140, 140, 118, 1)"/>
<circle cx="160" cy="688" r="16" fill="rgba(139, 125, 87, 1)"/>
<circle cx="208" cy="688" r="16" fill="rgba(91, 125, 101, 1)"/>
<circle cx="256" cy="688" r="16" fill="rgba(97, 111, 88, 1)"/>
<circle cx="16" cy="736" r="16" fill="rgba(236, 165, 132, 1)"/>
<circle cx="64" cy="736" r="16" fill="rgba(212, 166, 124, 1)"/>
</svg>
