<svg width="272" height="864" viewBox="0 0 272 864" fill="none" xmlns="http://www.w3.org/2000/svg">
<path d="M16 32C24.8366 32 32 24.8366 32 16C32 7.16344 24.8366 0 16 0C7.16344 0 0 7.16344 0 16C0 24.8366 7.16344 32 16 32Z" fill="#554E40"/>
<path d="M64 32C72.8366 32 80 24.8366 80 16C80 7.16344 72.8366 0 64 0C55.1634 0 48 7.16344 48 16C48 24.8366 55.1634 32 64 32Z" fill="#C2AD95"/>
<path d="M112 32C120.837 32 128 24.8366 128 16C128 7.16344 120.837 0 112 0C103.163 0 96 7.16344 96 16C96 24.8366 103.163 32 112 32Z" fill="#F4F4F4"/>
<path d="M160 32C168.837 32 176 24.8366 176 16C176 7.16344 168.837 0 160 0C151.163 0 144 7.16344 144 16C144 24.8366 151.163 32 160 32Z" fill="#BB9061"/>
<path d="M208 32C216.837 32 224 24.8366 224 16C224 7.16344 216.837 0 208 0C199.163 0 192 7.16344 192 16C192 24.8366 199.163 32 208 32Z" fill="#11445E"/>
<path d="M256 32C264.837 32 272 24.8366 272 16C272 7.16344 264.837 0 256 0C247.163 0 240 7.16344 240 16C240 24.8366 247.163 32 256 32Z" fill="#E8E2D9"/>
<path d="M16 80C24.8366 80 32 72.8366 32 64C32 55.1634 24.8366 48 16 48C7.16344 48 0 55.1634 0 64C0 72.8366 7.16344 80 16 80Z" fill="#EED4CD"/>
<path d="M64 80C72.8366 80 80 72.8366 80 64C80 55.1634 72.8366 48 64 48C55.1634 48 48 55.1634 48 64C48 72.8366 55.1634 80 64 80Z" fill="#F2F2F2"/>
<path d="M112 80C120.837 80 128 72.8366 128 64C128 55.1634 120.837 48 112 48C103.163 48 96 55.1634 96 64C96 72.8366 103.163 80 112 80Z" fill="#1A1A1A"/>
<path d="M160 80C168.837 80 176 72.8366 176 64C176 55.1634 168.837 48 160 48C151.163 48 144 55.1634 144 64C144 72.8366 151.163 80 160 80Z" fill="#566049"/>
<path d="M208 80C216.837 80 224 72.8366 224 64C224 55.1634 216.837 48 208 48C199.163 48 192 55.1634 192 64C192 72.8366 199.163 80 208 80Z" fill="#FFBB54"/>
<path d="M256 80C264.837 80 272 72.8366 272 64C272 55.1634 264.837 48 256 48C247.163 48 240 55.1634 240 64C240 72.8366 247.163 80 256 80Z" fill="#383836"/>
<path d="M16 128C24.8366 128 32 120.837 32 112C32 103.163 24.8366 96 16 96C7.16344 96 0 103.163 0 112C0 120.837 7.16344 128 16 128Z" fill="#BEB3A7"/>
<path d="M64 128C72.8366 128 80 120.837 80 112C80 103.163 72.8366 96 64 96C55.1634 96 48 103.163 48 112C48 120.837 55.1634 128 64 128Z" fill="#C83F3E"/>
<path d="M112 128C120.837 128 128 120.837 128 112C128 103.163 120.837 96 112 96C103.163 96 96 103.163 96 112C96 120.837 103.163 128 112 128Z" fill="#E3292F"/>
<path d="M160 128C168.837 128 176 120.837 176 112C176 103.163 168.837 96 160 96C151.163 96 144 103.163 144 112C144 120.837 151.163 128 160 128Z" fill="#FE640C"/>
<path d="M208 128C216.837 128 224 120.837 224 112C224 103.163 216.837 96 208 96C199.163 96 192 103.163 192 112C192 120.837 199.163 128 208 128Z" fill="#FE6748"/>
<path d="M256 128C264.837 128 272 120.837 272 112C272 103.163 264.837 96 256 96C247.163 96 240 103.163 240 112C240 120.837 247.163 128 256 128Z" fill="#FB744F"/>
<path d="M16 176C24.8366 176 32 168.837 32 160C32 151.163 24.8366 144 16 144C7.16344 144 0 151.163 0 160C0 168.837 7.16344 176 16 176Z" fill="#E47D5E"/>
<path d="M64 176C72.8366 176 80 168.837 80 160C80 151.163 72.8366 144 64 144C55.1634 144 48 151.163 48 160C48 168.837 55.1634 176 64 176Z" fill="#FF8340"/>
<path d="M112 176C120.837 176 128 168.837 128 160C128 151.163 120.837 144 112 144C103.163 144 96 151.163 96 160C96 168.837 103.163 176 112 176Z" fill="#FD8850"/>
<path d="M160 176C168.837 176 176 168.837 176 160C176 151.163 168.837 144 160 144C151.163 144 144 151.163 144 160C144 168.837 151.163 176 160 176Z" fill="#FE9400"/>
<path d="M208 176C216.837 176 224 168.837 224 160C224 151.163 216.837 144 208 144C199.163 144 192 151.163 192 160C192 168.837 199.163 176 208 176Z" fill="#F5F3BA"/>
<path d="M256 176C264.837 176 272 168.837 272 160C272 151.163 264.837 144 256 144C247.163 144 240 151.163 240 160C240 168.837 247.163 176 256 176Z" fill="#FFEA7D"/>
<path d="M16 224C24.8366 224 32 216.837 32 208C32 199.163 24.8366 192 16 192C7.16344 192 0 199.163 0 208C0 216.837 7.16344 224 16 224Z" fill="#E7CB0F"/>
<path d="M64 224C72.8366 224 80 216.837 80 208C80 199.163 72.8366 192 64 192C55.1634 192 48 199.163 48 208C48 216.837 55.1634 224 64 224Z" fill="#FED05A"/>
<path d="M112 224C120.837 224 128 216.837 128 208C128 199.163 120.837 192 112 192C103.163 192 96 199.163 96 208C96 216.837 103.163 224 112 224Z" fill="#FFDE44"/>
<path d="M160 224C168.837 224 176 216.837 176 208C176 199.163 168.837 192 160 192C151.163 192 144 199.163 144 208C144 216.837 151.163 224 160 224Z" fill="#F6EC00"/>
<path d="M208 224C216.837 224 224 216.837 224 208C224 199.163 216.837 192 208 192C199.163 192 192 199.163 192 208C192 216.837 199.163 224 208 224Z" fill="#E1F221"/>
<path d="M256 224C264.837 224 272 216.837 272 208C272 199.163 264.837 192 256 192C247.163 192 240 199.163 240 208C240 216.837 247.163 224 256 224Z" fill="#8BE12A"/>
<path d="M16 272C24.8366 272 32 264.837 32 256C32 247.163 24.8366 240 16 240C7.16344 240 0 247.163 0 256C0 264.837 7.16344 272 16 272Z" fill="#83E98C"/>
<path d="M64 272C72.8366 272 80 264.837 80 256C80 247.163 72.8366 240 64 240C55.1634 240 48 247.163 48 256C48 264.837 55.1634 272 64 272Z" fill="#ACEC9C"/>
<path d="M112 272C120.837 272 128 264.837 128 256C128 247.163 120.837 240 112 240C103.163 240 96 247.163 96 256C96 264.837 103.163 272 112 272Z" fill="#D3F2BC"/>
<path d="M160 272C168.837 272 176 264.837 176 256C176 247.163 168.837 240 160 240C151.163 240 144 247.163 144 256C144 264.837 151.163 272 160 272Z" fill="#D3F2DB"/>
<path d="M208 272C216.837 272 224 264.837 224 256C224 247.163 216.837 240 208 240C199.163 240 192 247.163 192 256C192 264.837 199.163 272 208 272Z" fill="#9ED5CD"/>
<path d="M256 272C264.837 272 272 264.837 272 256C272 247.163 264.837 240 256 240C247.163 240 240 247.163 240 256C240 264.837 247.163 272 256 272Z" fill="#68C4DC"/>
<path d="M16 320C24.8366 320 32 312.837 32 304C32 295.163 24.8366 288 16 288C7.16344 288 0 295.163 0 304C0 312.837 7.16344 320 16 320Z" fill="#1884B8"/>
<path d="M64 320C72.8366 320 80 312.837 80 304C80 295.163 72.8366 288 64 288C55.1634 288 48 295.163 48 304C48 312.837 55.1634 320 64 320Z" fill="#1BB5FA"/>
<path d="M112 320C120.837 320 128 312.837 128 304C128 295.163 120.837 288 112 288C103.163 288 96 295.163 96 304C96 312.837 103.163 320 112 320Z" fill="#63ADEC"/>
<path d="M160 320C168.837 320 176 312.837 176 304C176 295.163 168.837 288 160 288C151.163 288 144 295.163 144 304C144 312.837 151.163 320 160 320Z" fill="#94C5E7"/>
<path d="M208 320C216.837 320 224 312.837 224 304C224 295.163 216.837 288 208 288C199.163 288 192 295.163 192 304C192 312.837 199.163 320 208 320Z" fill="#B7A3DF"/>
<path d="M256 320C264.837 320 272 312.837 272 304C272 295.163 264.837 288 256 288C247.163 288 240 295.163 240 304C240 312.837 247.163 320 256 320Z" fill="#B2B9A6"/>
<path d="M16 368C24.8366 368 32 360.837 32 352C32 343.163 24.8366 336 16 336C7.16344 336 0 343.163 0 352C0 360.837 7.16344 368 16 368Z" fill="#8698A0"/>
<path d="M64 368C72.8366 368 80 360.837 80 352C80 343.163 72.8366 336 64 336C55.1634 336 48 343.163 48 352C48 360.837 55.1634 368 64 368Z" fill="#729B9C"/>
<path d="M112 368C120.837 368 128 360.837 128 352C128 343.163 120.837 336 112 336C103.163 336 96 343.163 96 352C96 360.837 103.163 368 112 368Z" fill="#649697"/>
<path d="M160 368C168.837 368 176 360.837 176 352C176 343.163 168.837 336 160 336C151.163 336 144 343.163 144 352C144 360.837 151.163 368 160 368Z" fill="#6B8981"/>
<path d="M208 368C216.837 368 224 360.837 224 352C224 343.163 216.837 336 208 336C199.163 336 192 343.163 192 352C192 360.837 199.163 368 208 368Z" fill="#037E9C"/>
<path d="M256 368C264.837 368 272 360.837 272 352C272 343.163 264.837 336 256 336C247.163 336 240 343.163 240 352C240 360.837 247.163 368 256 368Z" fill="#477D9D"/>
<path d="M16 416C24.8366 416 32 408.837 32 400C32 391.163 24.8366 384 16 384C7.16344 384 0 391.163 0 400C0 408.837 7.16344 416 16 416Z" fill="#626D84"/>
<path d="M64 416C72.8366 416 80 408.837 80 400C80 391.163 72.8366 384 64 384C55.1634 384 48 391.163 48 400C48 408.837 55.1634 416 64 416Z" fill="#327392"/>
<path d="M112 416C120.837 416 128 408.837 128 400C128 391.163 120.837 384 112 384C103.163 384 96 391.163 96 400C96 408.837 103.163 416 112 416Z" fill="#20669D"/>
<path d="M160 416C168.837 416 176 408.837 176 400C176 391.163 168.837 384 160 384C151.163 384 144 391.163 144 400C144 408.837 151.163 416 160 416Z" fill="#5B7198"/>
<path d="M208 416C216.837 416 224 408.837 224 400C224 391.163 216.837 384 208 384C199.163 384 192 391.163 192 400C192 408.837 199.163 416 208 416Z" fill="#556B94"/>
<path d="M256 416C264.837 416 272 408.837 272 400C272 391.163 264.837 384 256 384C247.163 384 240 391.163 240 400C240 408.837 247.163 416 256 416Z" fill="#5A83A7"/>
<path d="M16 464C24.8366 464 32 456.837 32 448C32 439.163 24.8366 432 16 432C7.16344 432 0 439.163 0 448C0 456.837 7.16344 464 16 464Z" fill="#424D75"/>
<path d="M64 464C72.8366 464 80 456.837 80 448C80 439.163 72.8366 432 64 432C55.1634 432 48 439.163 48 448C48 456.837 55.1634 464 64 464Z" fill="#7287C6"/>
<path d="M112 464C120.837 464 128 456.837 128 448C128 439.163 120.837 432 112 432C103.163 432 96 439.163 96 448C96 456.837 103.163 464 112 464Z" fill="#5876BE"/>
<path d="M160 464C168.837 464 176 456.837 176 448C176 439.163 168.837 432 160 432C151.163 432 144 439.163 144 448C144 456.837 151.163 464 160 464Z" fill="#5863A4"/>
<path d="M208 464C216.837 464 224 456.837 224 448C224 439.163 216.837 432 208 432C199.163 432 192 439.163 192 448C192 456.837 199.163 464 208 464Z" fill="#977CF7"/>
<path d="M256 464C264.837 464 272 456.837 272 448C272 439.163 264.837 432 256 432C247.163 432 240 439.163 240 448C240 456.837 247.163 464 256 464Z" fill="#7155BD"/>
<path d="M16 512C24.8366 512 32 504.837 32 496C32 487.163 24.8366 480 16 480C7.16344 480 0 487.163 0 496C0 504.837 7.16344 512 16 512Z" fill="#8685A3"/>
<path d="M64 512C72.8366 512 80 504.837 80 496C80 487.163 72.8366 480 64 480C55.1634 480 48 487.163 48 496C48 504.837 55.1634 512 64 512Z" fill="#B29AA6"/>
<path d="M112 512C120.837 512 128 504.837 128 496C128 487.163 120.837 480 112 480C103.163 480 96 487.163 96 496C96 504.837 103.163 512 112 512Z" fill="#FDC1A8"/>
<path d="M160 512C168.837 512 176 504.837 176 496C176 487.163 168.837 480 160 480C151.163 480 144 487.163 144 496C144 504.837 151.163 512 160 512Z" fill="#F3AFAA"/>
<path d="M208 512C216.837 512 224 504.837 224 496C224 487.163 216.837 480 208 480C199.163 480 192 487.163 192 496C192 504.837 199.163 512 208 512Z" fill="#F3ABA4"/>
<path d="M256 512C264.837 512 272 504.837 272 496C272 487.163 264.837 480 256 480C247.163 480 240 487.163 240 496C240 504.837 247.163 512 256 512Z" fill="#FEB08B"/>
<path d="M16 560C24.8366 560 32 552.837 32 544C32 535.163 24.8366 528 16 528C7.16344 528 0 535.163 0 544C0 552.837 7.16344 560 16 560Z" fill="#FE5963"/>
<path d="M64 560C72.8366 560 80 552.837 80 544C80 535.163 72.8366 528 64 528C55.1634 528 48 535.163 48 544C48 552.837 55.1634 560 64 560Z" fill="#FE4D51"/>
<path d="M112 560C120.837 560 128 552.837 128 544C128 535.163 120.837 528 112 528C103.163 528 96 535.163 96 544C96 552.837 103.163 560 112 560Z" fill="#EF5047"/>
<path d="M160 560C168.837 560 176 552.837 176 544C176 535.163 168.837 528 160 528C151.163 528 144 535.163 144 544C144 552.837 151.163 560 160 560Z" fill="#FD3B39"/>
<path d="M208 560C216.837 560 224 552.837 224 544C224 535.163 216.837 528 208 528C199.163 528 192 535.163 192 544C192 552.837 199.163 560 208 560Z" fill="#F34A7E"/>
<path d="M256 560C264.837 560 272 552.837 272 544C272 535.163 264.837 528 256 528C247.163 528 240 535.163 240 544C240 552.837 247.163 560 256 560Z" fill="#FC1F58"/>
<path d="M16 608C24.8366 608 32 600.837 32 592C32 583.163 24.8366 576 16 576C7.16344 576 0 583.163 0 592C0 600.837 7.16344 608 16 608Z" fill="#DF285D"/>
<path d="M64 608C72.8366 608 80 600.837 80 592C80 583.163 72.8366 576 64 576C55.1634 576 48 583.163 48 592C48 600.837 55.1634 608 64 608Z" fill="#93414B"/>
<path d="M112 608C120.837 608 128 600.837 128 592C128 583.163 120.837 576 112 576C103.163 576 96 583.163 96 592C96 600.837 103.163 608 112 608Z" fill="#B82844"/>
<path d="M160 608C168.837 608 176 600.837 176 592C176 583.163 168.837 576 160 576C151.163 576 144 583.163 144 592C144 600.837 151.163 608 160 608Z" fill="#C74543"/>
<path d="M208 608C216.837 608 224 600.837 224 592C224 583.163 216.837 576 208 576C199.163 576 192 583.163 192 592C192 600.837 199.163 608 208 608Z" fill="#D1826B"/>
<path d="M256 608C264.837 608 272 600.837 272 592C272 583.163 264.837 576 256 576C247.163 576 240 583.163 240 592C240 600.837 247.163 608 256 608Z" fill="#B58E61"/>
<path d="M16 656C24.8366 656 32 648.837 32 640C32 631.163 24.8366 624 16 624C7.16344 624 0 631.163 0 640C0 648.837 7.16344 656 16 656Z" fill="#AE8563"/>
<path d="M64 656C72.8366 656 80 648.837 80 640C80 631.163 72.8366 624 64 624C55.1634 624 48 631.163 48 640C48 648.837 55.1634 656 64 656Z" fill="#AE9980"/>
<path d="M112 656C120.837 656 128 648.837 128 640C128 631.163 120.837 624 112 624C103.163 624 96 631.163 96 640C96 648.837 103.163 656 112 656Z" fill="#D5B593"/>
<path d="M160 656C168.837 656 176 648.837 176 640C176 631.163 168.837 624 160 624C151.163 624 144 631.163 144 640C144 648.837 151.163 656 160 656Z" fill="#FDE3B6"/>
<path d="M208 656C216.837 656 224 648.837 224 640C224 631.163 216.837 624 208 624C199.163 624 192 631.163 192 640C192 648.837 199.163 656 208 656Z" fill="#DDD0BA"/>
<path d="M256 656C264.837 656 272 648.837 272 640C272 631.163 264.837 624 256 624C247.163 624 240 631.163 240 640C240 648.837 247.163 656 256 656Z" fill="#AD9C8D"/>
<path d="M16 704C24.8366 704 32 696.837 32 688C32 679.163 24.8366 672 16 672C7.16344 672 0 679.163 0 688C0 696.837 7.16344 704 16 704Z" fill="#9A8E8A"/>
<path d="M64 704C72.8366 704 80 696.837 80 688C80 679.163 72.8366 672 64 672C55.1634 672 48 679.163 48 688C48 696.837 55.1634 704 64 704Z" fill="#816E60"/>
<path d="M112 704C120.837 704 128 696.837 128 688C128 679.163 120.837 672 112 672C103.163 672 96 679.163 96 688C96 696.837 103.163 704 112 704Z" fill="#8C8C76"/>
<path d="M160 704C168.837 704 176 696.837 176 688C176 679.163 168.837 672 160 672C151.163 672 144 679.163 144 688C144 696.837 151.163 704 160 704Z" fill="#8B7D57"/>
<path d="M208 704C216.837 704 224 696.837 224 688C224 679.163 216.837 672 208 672C199.163 672 192 679.163 192 688C192 696.837 199.163 704 208 704Z" fill="#5B7D65"/>
<path d="M256 704C264.837 704 272 696.837 272 688C272 679.163 264.837 672 256 672C247.163 672 240 679.163 240 688C240 696.837 247.163 704 256 704Z" fill="#616F58"/>
<path d="M16 752C24.8366 752 32 744.837 32 736C32 727.163 24.8366 720 16 720C7.16344 720 0 727.163 0 736C0 744.837 7.16344 752 16 752Z" fill="#ECA584"/>
<path d="M64 752C72.8366 752 80 744.837 80 736C80 727.163 72.8366 720 64 720C55.1634 720 48 727.163 48 736C48 744.837 55.1634 752 64 752Z" fill="#D4A67C"/>
<path fill-rule="evenodd" clip-rule="evenodd" d="M16 816C7.16344 816 0 808.837 0 800C0 791.163 7.16344 784 16 784V816Z" fill="#FE6748"/>
<path fill-rule="evenodd" clip-rule="evenodd" d="M16 816V784C24.8366 784 32 791.163 32 800C32 808.837 24.8366 816 16 816Z" fill="#F4ABA4"/>
<path fill-rule="evenodd" clip-rule="evenodd" d="M256 816V784C247.163 784 240 791.163 240 800C240 808.837 247.163 816 256 816Z" fill="#E1F221"/>
<path fill-rule="evenodd" clip-rule="evenodd" d="M256 816V784C264.837 784 272 791.163 272 800C272 808.837 264.837 816 256 816Z" fill="#FDC1A8"/>
<path fill-rule="evenodd" clip-rule="evenodd" d="M208 816V784C199.163 784 192 791.163 192 800C192 808.837 199.163 816 208 816Z" fill="#E7CB0F"/>
<path fill-rule="evenodd" clip-rule="evenodd" d="M208 816V784C216.837 784 224 791.163 224 800C224 808.837 216.837 816 208 816Z" fill="#9DD5CD"/>
<path fill-rule="evenodd" clip-rule="evenodd" d="M160 816V784C151.163 784 144 791.163 144 800C144 808.837 151.163 816 160 816Z" fill="#FFE97D"/>
<path fill-rule="evenodd" clip-rule="evenodd" d="M160 816V784C168.837 784 176 791.163 176 800C176 808.837 168.837 816 160 816Z" fill="#626C84"/>
<path fill-rule="evenodd" clip-rule="evenodd" d="M112 816V784C103.163 784 96 791.163 96 800C96 808.837 103.163 816 112 816Z" fill="#D3F2BC"/>
<path fill-rule="evenodd" clip-rule="evenodd" d="M112 816V784C120.837 784 128 791.163 128 800C128 808.837 120.837 816 112 816Z" fill="#8B7E57"/>
<path fill-rule="evenodd" clip-rule="evenodd" d="M64 816V784C55.1634 784 48 791.163 48 800C48 808.837 55.1634 816 64 816Z" fill="#FFE97D"/>
<path fill-rule="evenodd" clip-rule="evenodd" d="M64 816V784C72.8366 784 80 791.163 80 800C80 808.837 72.8366 816 64 816Z" fill="#D3F2BC"/>
<path fill-rule="evenodd" clip-rule="evenodd" d="M16 864V832C7.16344 832 0 839.163 0 848C0 856.837 7.16344 864 16 864Z" fill="#FE640C"/>
<path fill-rule="evenodd" clip-rule="evenodd" d="M16 864V832C24.8366 832 32 839.163 32 848C32 856.837 24.8366 864 16 864Z" fill="#649697"/>
<path fill-rule="evenodd" clip-rule="evenodd" d="M256 864V832C247.163 832 240 839.163 240 848C240 856.837 247.163 864 256 864Z" fill="#FD9400"/>
<path fill-rule="evenodd" clip-rule="evenodd" d="M256 864V832C264.837 832 272 839.163 272 848C272 856.837 264.837 864 256 864Z" fill="#6B8981"/>
<path fill-rule="evenodd" clip-rule="evenodd" d="M208 864V832C199.163 832 192 839.163 192 848C192 856.837 199.163 864 208 864Z" fill="#FE640C"/>
<path fill-rule="evenodd" clip-rule="evenodd" d="M208 864V832C216.837 832 224 839.163 224 848C224 856.837 216.837 864 208 864Z" fill="#816D60"/>
<path fill-rule="evenodd" clip-rule="evenodd" d="M160 864V832C151.163 832 144 839.163 144 848C144 856.837 151.163 864 160 864Z" fill="#8BE12A"/>
<path fill-rule="evenodd" clip-rule="evenodd" d="M160 864V832C168.837 832 176 839.163 176 848C176 856.837 168.837 864 160 864Z" fill="#566B94"/>
<path fill-rule="evenodd" clip-rule="evenodd" d="M112 864V832C103.163 832 96 839.163 96 848C96 856.837 103.163 864 112 864Z" fill="#FD3B3A"/>
<path fill-rule="evenodd" clip-rule="evenodd" d="M112 864V832C120.837 832 128 839.163 128 848C128 856.837 120.837 864 112 864Z" fill="#816D60"/>
<path fill-rule="evenodd" clip-rule="evenodd" d="M64 864V832C55.1634 832 48 839.163 48 848C48 856.837 55.1634 864 64 864Z" fill="#8C8C76"/>
<path fill-rule="evenodd" clip-rule="evenodd" d="M64 864V832C72.8366 832 80 839.163 80 848C80 856.837 72.8366 864 64 864Z" fill="#FE5963"/>
</svg>
