<svg width="272" height="864" viewBox="0 0 272 864" fill="none" xmlns="http://www.w3.org/2000/svg">
<circle cx="16" cy="16" r="16" fill="rgba(85, 78, 64, 1)"/>
<circle cx="64" cy="16" r="16" fill="rgba(194, 173, 149, 1)"/>
<circle cx="112" cy="16" r="16" fill="rgba(244, 244, 244, 1)"/>
<circle cx="160" cy="16" r="16" fill="rgba(187, 144, 97, 1)"/>
<circle cx="208" cy="16" r="16" fill="rgba(17, 68, 94, 1)"/>
<circle cx="256" cy="16" r="16" fill="rgba(232, 226, 217, 1)"/>
<circle cx="16" cy="64" r="16" fill="rgba(238, 212, 205, 1)"/>
<circle cx="64" cy="64" r="16" fill="rgba(242, 242, 242, 1)"/>
<circle cx="112" cy="64" r="16" fill="rgba(26, 26, 26, 1)"/>
<circle cx="160" cy="64" r="16" fill="rgba(86, 96, 73, 1)"/>
<circle cx="208" cy="64" r="16" fill="rgba(255, 187, 84, 1)"/>
<circle cx="256" cy="64" r="16" fill="rgba(56, 56, 54, 1)"/>
<circle cx="16" cy="112" r="16" fill="rgba(190, 179, 167, 1)"/>
<circle cx="64" cy="112" r="16" fill="rgba(200, 63, 62, 1)"/>
<circle cx="112" cy="112" r="16" fill="rgba(227, 41, 47, 1)"/>
<circle cx="160" cy="112" r="16" fill="rgba(254, 100, 12, 1)"/>
<circle cx="208" cy="112" r="16" fill="rgba(254, 103, 72, 1)"/>
<circle cx="256" cy="112" r="16" fill="rgba(251, 116, 79, 1)"/>
<circle cx="16" cy="160" r="16" fill="rgba(228, 125, 94, 1)"/>
<circle cx="64" cy="160" r="16" fill="rgba(255, 131, 64, 1)"/>
<circle cx="112" cy="160" r="16" fill="rgba(253, 136, 80, 1)"/>
<circle cx="160" cy="160" r="16" fill="rgba(254, 148, 0, 1)"/>
<circle cx="208" cy="160" r="16" fill="rgba(245, 243, 186, 1)"/>
<circle cx="256" cy="160" r="16" fill="rgba(255, 234, 125, 1)"/>
<circle cx="16" cy="208" r="16" fill="rgba(231, 203, 15, 1)"/>
<circle cx="64" cy="208" r="16" fill="rgba(254, 208, 90, 1)"/>
<circle cx="112" cy="208" r="16" fill="rgba(255, 222, 68, 1)"/>
<circle cx="160" cy="208" r="16" fill="rgba(246, 236, 0, 1)"/>
<circle cx="208" cy="208" r="16" fill="rgba(225, 242, 33, 1)"/>
<circle cx="256" cy="208" r="16" fill="rgba(139, 225, 42, 1)"/>
<circle cx="16" cy="256" r="16" fill="rgba(131, 233, 140, 1)"/>
<circle cx="64" cy="256" r="16" fill="rgba(172, 236, 156, 1)"/>
<circle cx="112" cy="256" r="16" fill="rgba(211, 242, 188, 1)"/>
<circle cx="160" cy="256" r="16" fill="rgba(211, 242, 219, 1)"/>
<circle cx="208" cy="256" r="16" fill="rgba(158, 213, 205, 1)"/>
<circle cx="256" cy="256" r="16" fill="rgba(104, 196, 220, 1)"/>
<circle cx="16" cy="304" r="16" fill="rgba(24, 132, 184, 1)"/>
<circle cx="64" cy="304" r="16" fill="rgba(27, 181, 250, 1)"/>
<circle cx="112" cy="304" r="16" fill="rgba(99, 173, 236, 1)"/>
<circle cx="160" cy="304" r="16" fill="rgba(148, 197, 231, 1)"/>
<circle cx="208" cy="304" r="16" fill="rgba(183, 163, 223, 1)"/>
<circle cx="256" cy="304" r="16" fill="rgba(178, 185, 166, 1)"/>
<circle cx="16" cy="352" r="16" fill="rgba(134, 152, 160, 1)"/>
<circle cx="64" cy="352" r="16" fill="rgba(114, 155, 156, 1)"/>
<circle cx="112" cy="352" r="16" fill="rgba(100, 150, 151, 1)"/>
<circle cx="160" cy="352" r="16" fill="rgba(107, 137, 129, 1)"/>
<circle cx="208" cy="352" r="16" fill="rgba(3, 126, 156, 1)"/>
<circle cx="256" cy="352" r="16" fill="rgba(71, 125, 157, 1)"/>
<circle cx="16" cy="400" r="16" fill="rgba(98, 109, 132, 1)"/>
<circle cx="64" cy="400" r="16" fill="rgba(50, 115, 146, 1)"/>
<circle cx="112" cy="400" r="16" fill="rgba(32, 102, 157, 1)"/>
<circle cx="160" cy="400" r="16" fill="rgba(91, 113, 152, 1)"/>
<circle cx="208" cy="400" r="16" fill="rgba(85, 107, 148, 1)"/>
<circle cx="256" cy="400" r="16" fill="rgba(90, 131, 167, 1)"/>
<circle cx="16" cy="448" r="16" fill="rgba(66, 77, 117, 1)"/>
<circle cx="64" cy="448" r="16" fill="rgba(114, 135, 198, 1)"/>
<circle cx="112" cy="448" r="16" fill="rgba(88, 118, 190, 1)"/>
<circle cx="160" cy="448" r="16" fill="rgba(88, 99, 164, 1)"/>
<circle cx="208" cy="448" r="16" fill="rgba(151, 124, 247, 1)"/>
<circle cx="256" cy="448" r="16" fill="rgba(113, 85, 189, 1)"/>
<circle cx="16" cy="496" r="16" fill="rgba(134, 133, 163, 1)"/>
<circle cx="64" cy="496" r="16" fill="rgba(178, 154, 166, 1)"/>
<circle cx="112" cy="496" r="16" fill="rgba(253, 193, 168, 1)"/>
<circle cx="160" cy="496" r="16" fill="rgba(243, 175, 170, 1)"/>
<circle cx="208" cy="496" r="16" fill="rgba(243, 171, 164, 1)"/>
<circle cx="256" cy="496" r="16" fill="rgba(254, 176, 139, 1)"/>
<circle cx="16" cy="544" r="16" fill="rgba(254, 89, 99, 1)"/>
<circle cx="64" cy="544" r="16" fill="rgba(254, 77, 81, 1)"/>
<circle cx="112" cy="544" r="16" fill="rgba(239, 80, 71, 1)"/>
<circle cx="160" cy="544" r="16" fill="rgba(253, 59, 57, 1)"/>
<circle cx="208" cy="544" r="16" fill="rgba(243, 74, 126, 1)"/>
<circle cx="256" cy="544" r="16" fill="rgba(252, 31, 88, 1)"/>
<circle cx="16" cy="592" r="16" fill="rgba(223, 40, 93, 1)"/>
<circle cx="64" cy="592" r="16" fill="rgba(147, 65, 75, 1)"/>
<circle cx="112" cy="592" r="16" fill="rgba(184, 40, 68, 1)"/>
<circle cx="160" cy="592" r="16" fill="rgba(199, 69, 67, 1)"/>
<circle cx="208" cy="592" r="16" fill="rgba(209, 130, 107, 1)"/>
<circle cx="256" cy="592" r="16" fill="rgba(181, 142, 97, 1)"/>
<circle cx="16" cy="640" r="16" fill="rgba(174, 133, 99, 1)"/>
<circle cx="64" cy="640" r="16" fill="rgba(174, 153, 128, 1)"/>
<circle cx="112" cy="640" r="16" fill="rgba(213, 181, 147, 1)"/>
<circle cx="160" cy="640" r="16" fill="rgba(253, 227, 182, 1)"/>
<circle cx="208" cy="640" r="16" fill="rgba(221, 208, 186, 1)"/>
<circle cx="256" cy="640" r="16" fill="rgba(173, 156, 141, 1)"/>
<circle cx="16" cy="688" r="16" fill="rgba(154, 142, 138, 1)"/>
<circle cx="64" cy="688" r="16" fill="rgba(129, 110, 96, 1)"/>
<circle cx="112" cy="688" r="16" fill="rgba(140, 140, 118, 1)"/>
<circle cx="160" cy="688" r="16" fill="rgba(139, 125, 87, 1)"/>
<circle cx="208" cy="688" r="16" fill="rgba(91, 125, 101, 1)"/>
<circle cx="256" cy="688" r="16" fill="rgba(97, 111, 88, 1)"/>
<circle cx="16" cy="736" r="16" fill="rgba(236, 165, 132, 1)"/>
<circle cx="64" cy="736" r="16" fill="rgba(212, 166, 124, 1)"/>
<path fill-rule="evenodd" clip-rule="evenodd" d="M16 816C7.16344 816 0 808.837 0 800C0 791.163 7.16344 784 16 784V816Z" fill="#FE6748"/>
<path fill-rule="evenodd" clip-rule="evenodd" d="M16 816V784C24.8366 784 32 791.163 32 800C32 808.837 24.8366 816 16 816Z" fill="#F4ABA4"/>
<path fill-rule="evenodd" clip-rule="evenodd" d="M256 816V784C247.163 784 240 791.163 240 800C240 808.837 247.163 816 256 816Z" fill="#E1F221"/>
<path fill-rule="evenodd" clip-rule="evenodd" d="M256 816V784C264.837 784 272 791.163 272 800C272 808.837 264.837 816 256 816Z" fill="#FDC1A8"/>
<path fill-rule="evenodd" clip-rule="evenodd" d="M208 816V784C199.163 784 192 791.163 192 800C192 808.837 199.163 816 208 816Z" fill="#E7CB0F"/>
<path fill-rule="evenodd" clip-rule="evenodd" d="M208 816V784C216.837 784 224 791.163 224 800C224 808.837 216.837 816 208 816Z" fill="#9DD5CD"/>
<path fill-rule="evenodd" clip-rule="evenodd" d="M160 816V784C151.163 784 144 791.163 144 800C144 808.837 151.163 816 160 816Z" fill="#FFE97D"/>
<path fill-rule="evenodd" clip-rule="evenodd" d="M160 816V784C168.837 784 176 791.163 176 800C176 808.837 168.837 816 160 816Z" fill="#626C84"/>
<path fill-rule="evenodd" clip-rule="evenodd" d="M112 816V784C103.163 784 96 791.163 96 800C96 808.837 103.163 816 112 816Z" fill="#D3F2BC"/>
<path fill-rule="evenodd" clip-rule="evenodd" d="M112 816V784C120.837 784 128 791.163 128 800C128 808.837 120.837 816 112 816Z" fill="#8B7E57"/>
<path fill-rule="evenodd" clip-rule="evenodd" d="M64 816V784C55.1634 784 48 791.163 48 800C48 808.837 55.1634 816 64 816Z" fill="#FFE97D"/>
<path fill-rule="evenodd" clip-rule="evenodd" d="M64 816V784C72.8366 784 80 791.163 80 800C80 808.837 72.8366 816 64 816Z" fill="#D3F2BC"/>
<path fill-rule="evenodd" clip-rule="evenodd" d="M16 864V832C7.16344 832 0 839.163 0 848C0 856.837 7.16344 864 16 864Z" fill="#FE640C"/>
<path fill-rule="evenodd" clip-rule="evenodd" d="M16 864V832C24.8366 832 32 839.163 32 848C32 856.837 24.8366 864 16 864Z" fill="#649697"/>
<path fill-rule="evenodd" clip-rule="evenodd" d="M256 864V832C247.163 832 240 839.163 240 848C240 856.837 247.163 864 256 864Z" fill="#FD9400"/>
<path fill-rule="evenodd" clip-rule="evenodd" d="M256 864V832C264.837 832 272 839.163 272 848C272 856.837 264.837 864 256 864Z" fill="#6B8981"/>
<path fill-rule="evenodd" clip-rule="evenodd" d="M208 864V832C199.163 832 192 839.163 192 848C192 856.837 199.163 864 208 864Z" fill="#FE640C"/>
<path fill-rule="evenodd" clip-rule="evenodd" d="M208 864V832C216.837 832 224 839.163 224 848C224 856.837 216.837 864 208 864Z" fill="#816D60"/>
<path fill-rule="evenodd" clip-rule="evenodd" d="M160 864V832C151.163 832 144 839.163 144 848C144 856.837 151.163 864 160 864Z" fill="#8BE12A"/>
<path fill-rule="evenodd" clip-rule="evenodd" d="M160 864V832C168.837 832 176 839.163 176 848C176 856.837 168.837 864 160 864Z" fill="#566B94"/>
<path fill-rule="evenodd" clip-rule="evenodd" d="M112 864V832C103.163 832 96 839.163 96 848C96 856.837 103.163 864 112 864Z" fill="#FD3B3A"/>
<path fill-rule="evenodd" clip-rule="evenodd" d="M112 864V832C120.837 832 128 839.163 128 848C128 856.837 120.837 864 112 864Z" fill="#816D60"/>
<path fill-rule="evenodd" clip-rule="evenodd" d="M64 864V832C55.1634 832 48 839.163 48 848C48 856.837 55.1634 864 64 864Z" fill="#8C8C76"/>
<path fill-rule="evenodd" clip-rule="evenodd" d="M64 864V832C72.8366 832 80 839.163 80 848C80 856.837 72.8366 864 64 864Z" fill="#FE5963"/>
</svg>
