<svg width="358" height="105" viewBox="0 0 358 105" fill="none" xmlns="http://www.w3.org/2000/svg">
<path d="M34.1094 104.266C47.3984 104.266 59 96.9531 62.5156 86.8281C62.8672 85.7031 63.0781 84.6484 63.0781 83.7344C63.0781 80.5703 60.9688 78.3906 57.8047 78.3906C55.1328 78.3906 53.7969 79.375 52.0391 82.6797C48.2422 89.7109 42.8984 93.5078 34.1094 93.5078C21.5234 93.5078 12.8047 83.2422 12.8047 66.4375C12.8047 50.0547 21.3828 39.3672 34.1094 39.3672C42.5469 39.3672 48.1016 42.9531 51.9688 50.1953C53.6562 53.3594 55.1328 54.4844 57.8047 54.4844C60.9688 54.4844 63.0078 52.375 63.0078 49.1406C63.0078 48.3672 62.8672 47.4531 62.5859 46.5391C59.7734 36.4141 47.75 28.6094 33.9688 28.6094C13.7188 28.6094 0.359375 43.5859 0.359375 66.5781C0.359375 89.7109 13.8594 104.266 34.1094 104.266Z" fill="#554E41"/>
<path d="M106.391 104.266C126.57 104.266 140.211 89.7109 140.211 66.4375C140.211 43.0938 126.57 28.6094 106.391 28.6094C86.1406 28.6094 72.5 43.0938 72.5 66.4375C72.5 89.7109 86.1406 104.266 106.391 104.266ZM106.391 93.5078C93.4531 93.5078 84.9453 83.6641 84.9453 66.4375C84.9453 49.2109 93.4531 39.3672 106.391 39.3672C119.328 39.3672 127.766 49.2109 127.766 66.4375C127.766 83.6641 119.328 93.5078 106.391 93.5078Z" fill="#C3AD95"/>
<path d="M159.336 104.266C162.922 104.266 165.453 101.594 165.453 97.7266V6.8125C165.453 2.94531 162.922 0.273438 159.336 0.273438C155.75 0.273438 153.219 2.94531 153.219 6.8125V97.7266C153.219 101.594 155.75 104.266 159.336 104.266Z" fill="#9A8E8A"/>
<path d="M212.281 104.266C232.461 104.266 246.102 89.7109 246.102 66.4375C246.102 43.0938 232.461 28.6094 212.281 28.6094C192.031 28.6094 178.391 43.0938 178.391 66.4375C178.391 89.7109 192.031 104.266 212.281 104.266ZM212.281 93.5078C199.344 93.5078 190.836 83.6641 190.836 66.4375C190.836 49.2109 199.344 39.3672 212.281 39.3672C225.219 39.3672 233.656 49.2109 233.656 66.4375C233.656 83.6641 225.219 93.5078 212.281 93.5078Z" fill="#626E58"/>
<path d="M264.594 104.266C268.18 104.266 270.711 101.594 270.711 97.7266V57.5781C270.711 48.2266 275.422 40.2812 286.461 40.2812C289.133 40.2812 291.031 39.7891 292.297 38.7344C293.562 37.75 294.195 36.3438 294.195 34.4453C294.195 32.7578 293.703 31.3516 292.648 30.3672C291.453 29.2422 289.555 28.6094 286.883 28.6094C279.57 28.6094 272.398 34.2344 270.289 41.8281H270.008V34.7969C270.008 31.1406 267.617 28.6094 264.242 28.6094C260.867 28.6094 258.477 31.1406 258.477 34.7969V97.7266C258.477 101.594 261.008 104.266 264.594 104.266Z" fill="#EBA584"/>
<path d="M328.297 104.266C345.664 104.266 357.406 95.4766 357.406 82.3984C357.406 71.6406 351.781 66.2969 336.523 62.5703L325.625 59.8984C317.609 57.9297 313.672 54.4141 313.672 49.3516C313.672 43.0938 319.789 38.6641 328.578 38.6641C336.031 38.6641 340.742 41.3359 343.906 47.4531C345.242 49.9844 346.93 50.7578 349.32 50.7578C352.273 50.7578 354.102 48.8594 354.102 45.9766C354.102 45.4141 354.031 44.8516 353.891 44.1484C351.992 35.3594 341.305 28.6094 329.281 28.6094C312.758 28.6094 301.578 37.2578 301.578 49.9844C301.578 60.25 308.398 66.9297 322.531 70.4453L333.711 73.2578C341.938 75.2969 344.961 78.1094 344.961 83.3828C344.961 90.2031 338.633 94.2812 329.281 94.2812C319.93 94.2812 315.57 91.3984 311.914 85C310.508 82.4688 308.75 81.3438 306.57 81.3438C303.406 81.3438 301.016 83.1719 301.016 86.4062C301.016 87.3203 301.156 88.2344 301.578 89.2891C305.094 98.4297 315.289 104.266 328.297 104.266Z" fill="#D4A67C"/>
</svg>
